<svg xmlns="http://www.w3.org/2000/svg" viewBox="0 0 127.56 127.56"><defs><style>.cls-1{fill:#f1f2f2;}.cls-2{fill:#fff;}.cls-2,.cls-3{stroke:#282428;stroke-miterlimit:10;stroke-width:0.25px;}.cls-3{fill:#07bab2;}</style></defs><title>box</title><g id="Capa_2" data-name="Capa 2"><g id="Capa_1-2" data-name="Capa 1"><circle class="cls-1" cx="63.78" cy="63.78" r="63.78"/><polygon class="cls-2" points="63.73 38.19 36.09 51.22 25.37 38.19 53.05 25.25 63.73 38.19"/><polygon class="cls-2" points="102.19 38.19 91.47 51.22 63.73 38.19 74.52 25.25 102.19 38.19"/><polygon class="cls-3" points="91.47 51.22 63.73 64.26 36.09 51.22 63.73 38.19 91.47 51.22"/><polygon class="cls-3" points="91.37 69.32 91.37 89.36 63.73 102.31 63.73 64.26 74.52 77.19 91.37 69.32"/><polygon class="cls-3" points="63.73 64.26 63.73 102.31 35.75 89.25 35.9 69.17 53.05 77.19 63.73 64.26"/><polygon class="cls-2" points="102.19 64.25 91.37 69.32 74.52 77.19 63.73 64.26 91.47 51.22 102.19 64.25"/><polygon class="cls-2" points="63.73 64.26 53.05 77.19 35.9 69.17 25.37 64.25 36.09 51.22 63.73 64.26"/></g></g></svg>