<svg xmlns="http://www.w3.org/2000/svg" viewBox="0 0 176.2 40.59"><defs><style>.cls-1{fill:#282428;}.cls-2{fill:#07bab2;}</style></defs><title>Recurso 14</title><g id="Capa_2" data-name="Capa 2"><g id="Capa_1-2" data-name="Capa 1"><path class="cls-1" d="M63.24,40.59A20.6,20.6,0,0,1,48.3,34.81,19.44,19.44,0,0,1,42.35,20.3,19.41,19.41,0,0,1,48.3,5.79,20.57,20.57,0,0,1,63.24,0q7.71,0,12.3,3.41V8.06L73,6.45,70.27,5a22.43,22.43,0,0,0-7-1.24q-7.52,0-12.2,4.56a15.92,15.92,0,0,0-4.79,12A15.82,15.82,0,0,0,51,32.15a16.76,16.76,0,0,0,12.2,4.65,18.28,18.28,0,0,0,12.3-4.55v4.83A22.3,22.3,0,0,1,63.24,40.59Z"/><path class="cls-1" d="M77.3,39.83V.66h4V39.83Z"/><path class="cls-1" d="M128.76,39.83v-27a8.94,8.94,0,0,0-2.44-6.26q-2.44-2.66-7-2.65-9.47,0-9.46,8.91v27h-4v-27a8,8,0,0,0-2.73-6.35,10.29,10.29,0,0,0-13.47-.1,8.13,8.13,0,0,0-2.73,6.45v27h-4V.66h4V4.55Q89.82.09,96.36.1q7.8,0,11.51,6.16Q111.4.1,119.29.1a14.08,14.08,0,0,1,9.76,3.31q3.72,3.42,3.71,9.39v27Z"/><path class="cls-1" d="M138.43,19.44q0,8,4.39,12.62,4.59,4.74,12.59,4.74a19.77,19.77,0,0,0,7.42-1.33q4.18-1.71,7.51-6.92L174,30.16a19.28,19.28,0,0,1-11.71,9.48,22.87,22.87,0,0,1-6.83,1,20.37,20.37,0,0,1-14.93-5.78,19.41,19.41,0,0,1-6-14.51,19.33,19.33,0,0,1,5.86-14.51,20.68,20.68,0,0,1,15-5.79q9,0,14.83,5.41a18.07,18.07,0,0,1,6,14ZM166,7a17.87,17.87,0,0,0-10.54-3.23q-12.49,0-16.4,12h32.7A13.15,13.15,0,0,0,166,7Z"/><circle class="cls-1" cx="20.3" cy="20.3" r="20.3"/><path class="cls-2" d="M27.76,33.24a10.82,10.82,0,0,1-7.13,2.46A11.57,11.57,0,0,1,9.94,29.42l2.6-1.51a10.14,10.14,0,0,0,3,3.46,8.36,8.36,0,0,0,5,1.37q7,0,7-5.77a5.46,5.46,0,0,0-2.45-4.4,15.88,15.88,0,0,0-2.12-1c-.91-.36-2-.78-3.38-1.26a18.83,18.83,0,0,1-5.34-2.6,6.47,6.47,0,0,1-2.38-5.41,6.76,6.76,0,0,1,2.38-5.19,8.26,8.26,0,0,1,6-2.23A12,12,0,0,1,29,8.36l-2.23,1.87a8.91,8.91,0,0,0-6.46-2.45C16.77,7.78,15,9.3,15,12.32a4,4,0,0,0,1.63,3.32,14.53,14.53,0,0,0,4.23,1.95c1.68.58,3.07,1.12,4.16,1.62a16.58,16.58,0,0,1,2.45,1.34A7.58,7.58,0,0,1,30.65,27,7.71,7.71,0,0,1,27.76,33.24Z"/></g></g></svg>