<?xml version="1.0" encoding="utf-8"?>
<!-- Generator: Adobe Illustrator 24.0.1, SVG Export Plug-In . SVG Version: 6.00 Build 0)  -->
<svg version="1.1" id="Layer_1" xmlns="http://www.w3.org/2000/svg" xmlns:xlink="http://www.w3.org/1999/xlink" x="0px" y="0px"
	 viewBox="0 0 176.2 40.6" style="enable-background:new 0 0 176.2 40.6;" xml:space="preserve">
<style type="text/css">
	.st0{fill:#07BAB2;}
	.st1{fill:#282428;}
</style>
<title>Recurso 14</title>
<g id="Capa_2">
	<g id="Capa_1-2">
		<path class="st0" d="M63.2,40.6c-5.6,0.2-10.9-1.9-14.9-5.8c-3.9-3.8-6.1-9.1-6-14.5c-0.1-5.5,2-10.7,6-14.5c4-3.9,9.4-6,14.9-5.8
			c5.1,0,9.2,1.1,12.3,3.4v4.7L73,6.4L70.3,5c-2.3-0.8-4.6-1.2-7-1.2c-5,0-9.1,1.5-12.2,4.6c-3.2,3.1-5,7.5-4.8,12
			c-0.2,4.4,1.6,8.7,4.7,11.8c3.3,3.1,7.7,4.8,12.2,4.7c4.5,0.1,8.9-1.6,12.3-4.5v4.8C71.8,39.4,67.6,40.6,63.2,40.6z"/>
		<path class="st0" d="M77.3,39.8V0.7h4v39.2H77.3z"/>
		<path class="st0" d="M128.8,39.8v-27c0-2.3-0.8-4.6-2.4-6.3c-1.6-1.8-4-2.7-7-2.7c-6.3,0-9.5,3-9.5,8.9v27h-4v-27
			c0.1-2.4-0.9-4.8-2.7-6.3c-3.8-3.4-9.6-3.4-13.5-0.1c-1.8,1.6-2.8,4-2.7,6.4v27h-4V0.7h4v3.9c1.9-3,5.1-4.5,9.4-4.5
			c5.2,0,9,2.1,11.5,6.2c2.4-4.1,6.2-6.2,11.4-6.2c3.6-0.2,7,1,9.8,3.3c2.5,2.3,3.7,5.4,3.7,9.4v27L128.8,39.8z"/>
		<path class="st0" d="M138.4,19.4c0,5.3,1.5,9.5,4.4,12.6c3.1,3.2,7.3,4.7,12.6,4.7c2.5,0,5.1-0.4,7.4-1.3c2.8-1.1,5.3-3.4,7.5-6.9
			l3.7,1.6c-2.5,4.6-6.7,8-11.7,9.5c-2.2,0.7-4.5,1-6.8,1c-5.6,0.2-11-1.9-14.9-5.8c-4-3.8-6.1-9-6-14.5c-0.2-5.4,1.9-10.7,5.9-14.5
			c4-3.9,9.4-6,15-5.8c6,0,10.9,1.8,14.8,5.4c4,3.6,6.2,8.7,6,14L138.4,19.4z M166,7c-3.1-2.2-6.8-3.3-10.5-3.2
			c-8.3,0-13.8,4-16.4,12h32.7C171.1,12.2,169.1,9,166,7z"/>
		<circle class="st0" cx="20.3" cy="20.3" r="20.3"/>
		<path class="st1" d="M27.8,33.2c-2,1.6-4.5,2.5-7.1,2.5c-4.5,0.2-8.6-2.3-10.7-6.3l2.6-1.5c0.7,1.4,1.7,2.6,3,3.5
			c1.5,1,3.2,1.5,5,1.4c4.7,0,7-1.9,7-5.8c-0.1-1.8-1-3.4-2.5-4.4c-0.7-0.4-1.4-0.7-2.1-1c-0.9-0.4-2-0.8-3.4-1.3
			c-1.9-0.6-3.7-1.5-5.3-2.6c-1.6-1.3-2.5-3.3-2.4-5.4c0-2,0.9-3.9,2.4-5.2c1.6-1.5,3.8-2.3,6-2.2c3.3-0.1,6.4,1.2,8.8,3.5l-2.2,1.9
			c-1.7-1.7-4.1-2.5-6.5-2.4c-3.5,0-5.3,1.5-5.3,4.5c0,1.3,0.6,2.5,1.6,3.3c1.3,0.9,2.7,1.5,4.2,1.9c1.7,0.6,3.1,1.1,4.2,1.6
			c0.9,0.4,1.7,0.8,2.5,1.3c2.1,1.5,3.3,3.9,3.2,6.4C30.7,29.4,29.6,31.7,27.8,33.2z"/>
	</g>
</g>
</svg>
